<?xml version="1.0" encoding="utf-8"?>
<!-- Generator: Adobe Illustrator 18.0.0, SVG Export Plug-In . SVG Version: 6.00 Build 0)  -->
<!DOCTYPE svg PUBLIC "-//W3C//DTD SVG 1.1//EN" "http://www.w3.org/Graphics/SVG/1.1/DTD/svg11.dtd">
<svg version="1.1" id="Layer_1" xmlns="http://www.w3.org/2000/svg" xmlns:xlink="http://www.w3.org/1999/xlink" x="0px" y="0px"
	 viewBox="382.7 114.8 445.3 685.2" enable-background="new 382.7 114.8 445.3 685.2" xml:space="preserve">
<g>
	<path d="M805.1,565.3c4.7-28.2,14.1-75.1,18.8-117.3c4.7-79.8,4.7-333.2-215.9-333.2c-23.5,0-51.6,4.7-61,9.4
		c-14.1,4.7-14.1,14.1-23.5,18.8c-9.4,4.7-18.8,0-28.2,4.7c-107.9,51.6-103.2,183-103.2,183l14.1,262.8L382.7,800H1204H828.6
		L805.1,565.3z M439,302.5c46.9-4.7,103.2-42.2,107.9-93.9c61,51.6,150.2,51.6,220.6,61c9.4,4.7,14.1,23.5,18.8,46.9l-37.5,4.7
		v-28.2h-122v28.2h-23.5v-28.2h-122v28.2l-46.9-4.7C439,311.9,439,307.2,439,302.5z M734.7,307.2v46.9h-93.9v-46.9H734.7z
		 M589.2,307.2v46.9h-93.9v-46.9H589.2z M504.7,800h-46.9l18.8-117.3c18.8,56.3,32.9,107.9,32.9,107.9L504.7,800z M720.6,800v-14.1
		c0,0,9.4-61,18.8-122L758.2,800C758.2,800,720.6,800,720.6,800z M659.6,490.3v61l0,0l23.5,9.4l-61,107.9v126.7H608V678l-65.7-117.3
		l18.8-4.7v-65.7c-70.4-23.5-117.3-79.8-122-154.9l46.9,4.7v28.2h122v-18.8h23.5v18.8h122v-23.5l37.5-4.7
		C786.3,396.4,753.5,480.9,659.6,490.3z"/>
</g>
</svg>
