<?xml version="1.0" encoding="utf-8"?>
<!-- Generator: Adobe Illustrator 18.0.0, SVG Export Plug-In . SVG Version: 6.00 Build 0)  -->
<!DOCTYPE svg PUBLIC "-//W3C//DTD SVG 1.1//EN" "http://www.w3.org/Graphics/SVG/1.1/DTD/svg11.dtd">
<svg version="1.1" id="Layer_1" xmlns="http://www.w3.org/2000/svg" xmlns:xlink="http://www.w3.org/1999/xlink" x="0px" y="0px"
	 viewBox="0 0 26.2 31.7" enable-background="new 0 0 26.2 31.7" xml:space="preserve">
<g>
	<polygon points="23,23.3 17.4,27.7 20.5,31.7 22,27.8 26.2,27.2 	"/>
	<polygon points="7.4,25 11.3,26.5 11.9,30.7 15.8,27.6 11.4,21.9 	"/>
	<path d="M17.4,18.7c-1.8,0-3.2,1.4-3.2,3.2c0,1.8,1.4,3.2,3.2,3.2c1.8,0,3.2-1.4,3.2-3.2C20.6,20.2,19.1,18.7,17.4,18.7z M18.9,24
		l-1.5-0.8L15.8,24l0.3-1.7l-1.2-1.2l1.7-0.2l0.8-1.5l0.8,1.5l1.7,0.2l-1.2,1.2L18.9,24z"/>
	<path d="M21.2,21.9c0-2.1-1.7-3.9-3.9-3.9c-2.1,0-3.9,1.7-3.9,3.9c0,2.1,1.7,3.9,3.9,3.9C19.5,25.8,21.2,24.1,21.2,21.9z
		 M17.4,25.3c-1.9,0-3.4-1.5-3.4-3.4s1.5-3.4,3.4-3.4c1.9,0,3.4,1.5,3.4,3.4S19.2,25.3,17.4,25.3z"/>
</g>
<polygon points="18.5,0 18.3,0 18.2,0 0,0 0,28.1 10.6,28.1 10.4,26.9 1.3,26.9 1.3,1.3 17.4,1.3 17.4,6.3 22.3,6.3 22.3,21.5 
	23.6,22.5 23.6,7.6 23.6,5.4 23.6,5.1 "/>
<rect x="3" y="17.1" width="8.8" height="1.2"/>
<rect x="3" y="19.4" width="8.8" height="1.2"/>
<rect x="2.8" y="7.3" fill="none" width="18" height="8.7"/>
<text transform="matrix(1 0 0 1 5.003 13.2529)" font-family="'FranklinGothic-Demi'" font-size="9">ISO</text>
</svg>
