<?xml version="1.0" encoding="utf-8"?>
<!-- Generator: Adobe Illustrator 18.0.0, SVG Export Plug-In . SVG Version: 6.00 Build 0)  -->
<!DOCTYPE svg PUBLIC "-//W3C//DTD SVG 1.1//EN" "http://www.w3.org/Graphics/SVG/1.1/DTD/svg11.dtd">
<svg version="1.1" id="Layer_1" xmlns="http://www.w3.org/2000/svg" xmlns:xlink="http://www.w3.org/1999/xlink" x="0px" y="0px"
	 viewBox="0 82.9 595.3 598" enable-background="new 0 82.9 595.3 598" xml:space="preserve">
<path d="M318.8,586.4c9-4.8,12.7-15.8,7.8-24.9c0,0-9-16.9-13.9-26.1c-2.5,11.9-9.5,15.9-25.8,30l7.1,13.3
	C297.1,584.8,309.6,591.3,318.8,586.4z M271.2,565l25.2-21.8c8.5-7.4,8-20,0.8-27c-7-7.1-18.1-7-25-1L247,537
	c-7.8,6.7-8.4,18.4-1.7,26.1C251.1,569.7,262.7,572.3,271.2,565z M359.7,564.7c9.6-5.1,12.4-16.3,7.9-25l-28.5-53.2l8.1-5.1
	l31.7,59.8c4.7,8.9,15.7,12.3,24.8,7.6c9.5-5.1,12.5-16.2,7.8-25l-33-62.1l8.4-5c0,0,21.8,42,29.7,56.9c4.9,9,16.1,12.3,24.8,7.6
	c9.2-4.9,12.6-15.8,7.8-25c-24.7-46.7-19.3-36.9-29.4-53.4c-29.7-41.3-73-69.6-115.7-104.9l-75.8,35.6c-15.7,7.2-32.1-0.3-38.6-13.7
	c-7.1-14.8-0.8-32,13.5-38.9l18.1-8.5l-58.3-0.2l-61.7,84.5l40.2,37c1.7-3.7,4.2-7.1,7.3-9.8l45.2-39.2c12-10.3,30.3-9.2,40.9,2.9
	c5.3,6.1,7.8,13.7,7.2,21.4c10.5-2.4,21.2,1.4,28.2,9.3c8.5,9.8,9.6,23.5,3.1,34.1c6.8,1.1,12.8,4.5,17.3,9.6
	c9.9,11.5,9.4,28.1-0.3,38.7c6.6-1,14.5,2.5,18.2,8.2c0,0,19.2,34.9,26.2,48.2C338,563.2,350.6,569.6,359.7,564.7z M240.9,530
	l40.2-34.9c7.6-6.5,8.5-18.1,1.6-26.1c-6.5-7.6-18.2-8.6-25.9-1.8c-0.9,0.8-40.8,35.3-41.6,36.2c-6.4,6.9-6.5,17.5-0.2,24.7
	C220.9,535,232.7,537.1,240.9,530z M205.5,499.3l55.2-47.8c7.7-6.6,8.5-18.2,1.7-26.1c-6.8-7.7-18.3-8.5-25.9-1.9l-50.4,43.6
	c-11.7,7.4-13.3,22.5-6.5,30.3C185.3,504.1,197.2,506.6,205.5,499.3z M154.3,458.1c-6.8-7.9-5.9-19.6,1.7-26.1l45.2-39.2
	c7.6-6.5,19.2-5.9,26,1.9c6.8,7.9,6.1,19.4-1.7,26.1L180.2,460C173.1,466.2,161.5,466.4,154.3,458.1z M305.8,325.6L223.9,364
	c-9.6,4.5-20.3,0.1-24.5-8.7c-4.6-9.6-0.4-20.4,8.6-24.7l82.5-38.7c11.5-4.2,22.9-6.1,37-6.1c28.3,0,86.6,15.3,113.4,22.9l48.2,82.1
	l-27.6,17.4c-6.6,6.3-12,24.2-26.5,33.7C405.1,401.8,353.3,360,305.8,325.6z M448.2,291.9l50.6-30.9l60.9,101.9l-52.6,29.5
	L448.2,291.9z M32.5,356.9l71.2-103.5l52.3,42l-69.5,96.4L32.5,356.9z"/>
</svg>
