<?xml version="1.0" encoding="utf-8"?>
<!-- Generator: Adobe Illustrator 18.0.0, SVG Export Plug-In . SVG Version: 6.00 Build 0)  -->
<!DOCTYPE svg PUBLIC "-//W3C//DTD SVG 1.1//EN" "http://www.w3.org/Graphics/SVG/1.1/DTD/svg11.dtd">
<svg version="1.1" id="Capa_1" xmlns="http://www.w3.org/2000/svg" xmlns:xlink="http://www.w3.org/1999/xlink" x="0px" y="0px"
	 viewBox="0 0 482 272" enable-background="new 0 0 482 272" xml:space="preserve">
<g>
	<polygon fill="#FFFFFF" points="131.6,259 21.3,138.4 131.6,17.8 352.1,17.8 462.4,138.4 352.1,259 	"/>
	<g>
		<path d="M131.6,256.5C98.2,220,64.8,183.5,31.4,147c-3.4-3.7-6.7-7.4-10.1-11.1c0,1.7,0,3.3,0,5c33.4-36.5,66.8-73,100.1-109.5
			c2.6-2.9,5.2-5.7,7.9-8.6c0.4-0.4,1.8-2.5,2.4-2.5c5.2,0,10.4,0,15.6,0c27.7,0,55.4,0,83.1,0c30.5,0,61,0,91.5,0
			c8.7,0,17.4,0,26.1,0c4.1,0,4.1-0.1,6.9,3c34.9,38.2,69.9,76.4,104.8,114.7c0.9,1,1.8,2,2.7,3c0-1.7,0-3.3,0-5
			c-33.4,36.5-66.8,73-100.1,109.5c-2.6,2.9-5.2,5.7-7.9,8.6c-0.4,0.4-1.8,2.5-2.4,2.5c-5.2,0-10.4,0-15.6,0c-27.7,0-55.4,0-83.1,0
			C212.7,256.5,172.1,256.5,131.6,256.5c0,0,0,5,0,5c48.1,0,96.2,0,144.2,0c23.6,0,47.2,0,70.8,0c3.8,0,4.9,0.6,7.3-2
			c6.4-7,12.9-14.1,19.3-21.1c29.7-32.5,59.4-65,89.1-97.4c0.3-0.3,0.3-4.7,0-5c-33.4-36.5-66.8-73-100.1-109.5
			c-2.6-2.9-5.2-5.7-7.9-8.6c-0.4-0.4-1.8-2.5-2.4-2.5c-5.2,0-10.4,0-15.6,0c-27.7,0-55.4,0-83.1,0c-30.5,0-61,0-91.5,0
			c-8.7,0-17.4,0-26.1,0c-4.1,0-4.1-0.1-6.9,3C93.9,56.5,59,94.7,24,132.9c-0.9,1-1.8,2-2.7,3c-0.3,0.3-0.3,4.7,0,5
			c33.4,36.5,66.8,73,100.1,109.5c3.4,3.7,6.7,7.4,10.1,11.1C130.8,260.6,132.4,257.4,131.6,256.5z"/>
	</g>
</g>
<polygon fill="#FFFFFF" stroke="#000000" stroke-width="7" stroke-miterlimit="10" points="142.1,247.2 42.3,139 142.1,30.8 
	341.6,30.8 441.3,139 341.6,247.2 "/>
<rect x="82.6" y="103" fill="none" width="319" height="80"/>
<text transform="matrix(1 0 0 1 83.9982 168.3652)" font-family="'Algerian'" font-size="98">44.000</text>
</svg>
