<?xml version="1.0" encoding="utf-8"?>
<!-- Generator: Adobe Illustrator 18.0.0, SVG Export Plug-In . SVG Version: 6.00 Build 0)  -->
<!DOCTYPE svg PUBLIC "-//W3C//DTD SVG 1.1//EN" "http://www.w3.org/Graphics/SVG/1.1/DTD/svg11.dtd">
<svg version="1.1" id="Capa_1" xmlns="http://www.w3.org/2000/svg" xmlns:xlink="http://www.w3.org/1999/xlink" x="0px" y="0px"
	 viewBox="0 218 612 357" enable-background="new 0 218 612 357" xml:space="preserve">
<g>
	<polygon fill="#FFFFFF" points="167.1,552.2 27,399 167.1,245.9 447.1,245.9 587.1,399 447.1,552.2 	"/>
	<g>
		<path d="M167.1,549c-42.4-46.3-84.8-92.7-127.2-139c-4.3-4.7-8.5-9.4-12.8-14.1c0,2.2,0,4.2,0,6.3c42.4-46.3,84.8-92.7,127.1-139
			c3.3-3.7,6.6-7.2,10-10.9c0.5-0.5,2.3-3.2,3-3.2c6.6,0,13.2,0,19.8,0c35.2,0,70.3,0,105.5,0c38.7,0,77.5,0,116.2,0
			c11,0,22.1,0,33.1,0c5.2,0,5.2-0.1,8.8,3.8c44.3,48.5,88.8,97,133.1,145.6c1.1,1.3,2.3,2.5,3.4,3.8c0-2.2,0-4.2,0-6.3
			c-42.4,46.3-84.8,92.7-127.1,139c-3.3,3.7-6.6,7.2-10,10.9c-0.5,0.5-2.3,3.2-3,3.2c-6.6,0-13.2,0-19.8,0c-35.2,0-70.3,0-105.5,0
			C270.1,549,218.5,549,167.1,549v6.3c61.1,0,122.1,0,183.1,0c30,0,59.9,0,89.9,0c4.8,0,6.2,0.8,9.3-2.5
			c8.1-8.9,16.4-17.9,24.5-26.8c37.7-41.3,75.4-82.5,113.1-123.7c0.4-0.4,0.4-6,0-6.3c-42.4-46.3-84.8-92.7-127.1-139
			c-3.3-3.7-6.6-7.2-10-10.9c-0.5-0.5-2.3-3.2-3-3.2c-6.6,0-13.2,0-19.8,0c-35.2,0-70.3,0-105.5,0c-38.7,0-77.5,0-116.2,0
			c-11,0-22.1,0-33.1,0c-5.2,0-5.2-0.1-8.8,3.8c-44.2,48.4-88.5,96.9-132.9,145.4c-1.1,1.3-2.3,2.5-3.4,3.8c-0.4,0.4-0.4,6,0,6.3
			c42.4,46.3,84.8,92.7,127.1,139c4.3,4.7,8.5,9.4,12.8,14.1C166.1,554.2,168.1,550.1,167.1,549z"/>
	</g>
</g>
<polygon fill="#FFFFFF" stroke="#000000" stroke-width="7" stroke-miterlimit="10" points="180.4,537.2 53.7,399.8 180.4,262.4 
	433.7,262.4 560.3,399.8 433.7,537.2 "/>
<rect x="104.9" y="354.1" fill="none" width="405" height="101.6"/>
<text transform="matrix(1 0 0 1 106.6533 437.0938)" font-family="'Algerian'" font-size="124.4315">44.200</text>
</svg>
