<?xml version="1.0" encoding="utf-8"?>
<!-- Generator: Adobe Illustrator 18.0.0, SVG Export Plug-In . SVG Version: 6.00 Build 0)  -->
<!DOCTYPE svg PUBLIC "-//W3C//DTD SVG 1.1//EN" "http://www.w3.org/Graphics/SVG/1.1/DTD/svg11.dtd">
<svg version="1.1" id="Capa_1" xmlns="http://www.w3.org/2000/svg" xmlns:xlink="http://www.w3.org/1999/xlink" x="0px" y="0px"
	 width="422px" height="42.1px" viewBox="0 0 422 42.1" enable-background="new 0 0 422 42.1" xml:space="preserve">
<polyline points="376.5,0 401,21 376.5,42.1 46.1,42.1 21.6,21 46.1,0 "/>
<g>
	<g>
		<g>
			<path fill="#E6E6E6" d="M69,26.1l-2.2,7.4H64l7.2-23.6h3.3l7.3,23.6h-2.9l-2.3-7.4H69z M76,23.7l-2.1-6.8
				c-0.5-1.5-0.8-2.9-1.1-4.3h-0.1c-0.3,1.4-0.7,2.8-1.1,4.3l-2.1,6.8H76z"/>
			<path fill="#E6E6E6" d="M84.5,29.8c1.2,0.8,3,1.5,4.9,1.5c2.8,0,4.4-1.6,4.4-4c0-2.2-1.1-3.5-4-4.7c-3.5-1.4-5.6-3.4-5.6-6.7
				c0-3.7,2.7-6.4,6.9-6.4c2.2,0,3.8,0.6,4.7,1.2L95,13.1c-0.7-0.4-2.1-1.1-4-1.1c-2.9,0-4,1.9-4,3.5c0,2.2,1.3,3.3,4.2,4.6
				c3.6,1.5,5.4,3.5,5.4,6.9c0,3.6-2.4,6.8-7.4,6.8c-2,0-4.3-0.7-5.4-1.5L84.5,29.8z"/>
			<path fill="#E6E6E6" d="M111.4,22.4h-8.3v8.5h9.2v2.6h-11.9V9.9h11.5v2.6h-8.7V20h8.3L111.4,22.4L111.4,22.4z"/>
			<path fill="#E6E6E6" d="M115.5,29.8c1.2,0.8,3,1.5,4.9,1.5c2.8,0,4.4-1.6,4.4-4c0-2.2-1.1-3.5-4-4.7c-3.5-1.4-5.6-3.4-5.6-6.7
				c0-3.7,2.7-6.4,6.9-6.4c2.2,0,3.8,0.6,4.7,1.2l-0.8,2.5c-0.7-0.4-2.1-1.1-4-1.1c-2.9,0-4,1.9-4,3.5c0,2.2,1.3,3.3,4.2,4.6
				c3.6,1.5,5.4,3.5,5.4,6.9c0,3.6-2.4,6.8-7.4,6.8c-2,0-4.3-0.7-5.4-1.5L115.5,29.8z"/>
			<path fill="#E6E6E6" d="M149.6,21.4c0,8.1-4.4,12.4-9.9,12.4c-5.6,0-9.6-4.8-9.6-12c0-7.5,4.2-12.4,9.9-12.4
				C145.8,9.5,149.6,14.4,149.6,21.4z M133.1,21.8c0,5,2.5,9.6,6.8,9.6c4.4,0,6.8-4.4,6.8-9.8c0-4.7-2.2-9.6-6.8-9.6
				C135.4,12,133.1,16.6,133.1,21.8z"/>
			<path fill="#E6E6E6" d="M153.2,10.2c1.4-0.3,3.4-0.5,5.3-0.5c2.9,0,4.8,0.6,6.1,1.9c1.1,1.1,1.7,2.7,1.7,4.5c0,3.1-1.8,5.2-4,6
				v0.1c1.6,0.6,2.6,2.3,3.1,4.8c0.7,3.3,1.2,5.6,1.6,6.5h-2.8c-0.3-0.7-0.8-2.7-1.4-5.6c-0.6-3.3-1.8-4.5-4.3-4.6h-2.6v10.2h-2.7
				L153.2,10.2L153.2,10.2z M155.9,20.9h2.8c2.9,0,4.8-1.8,4.8-4.5c0-3-2-4.4-4.9-4.4c-1.3,0-2.3,0.1-2.7,0.3L155.9,20.9L155.9,20.9
				z"/>
			<path fill="#E6E6E6" d="M172.9,9.9v23.6h-2.7V9.9H172.9z"/>
			<path fill="#E6E6E6" d="M181.1,26.1l-2.2,7.4H176l7.2-23.6h3.3l7.3,23.6h-2.9l-2.3-7.4H181.1z M188.1,23.7l-2.1-6.8
				c-0.5-1.5-0.8-2.9-1.1-4.3h-0.1c-0.3,1.4-0.7,2.8-1.1,4.3l-2.1,6.8H188.1z"/>
			<path fill="#E6E6E6" d="M218.5,32.7c-1,0.6-3,1.1-5.6,1.1c-6,0-10.5-4.2-10.5-11.9c0-7.4,4.5-12.4,11.1-12.4c2.6,0,4.3,0.6,5,1.1
				l-0.7,2.5c-1-0.6-2.5-1-4.3-1c-5,0-8.3,3.5-8.3,9.7c0,5.8,3,9.5,8.2,9.5c1.7,0,3.4-0.4,4.5-1L218.5,32.7z"/>
			<path fill="#E6E6E6" d="M239.4,21.4c0,8.1-4.4,12.4-9.9,12.4c-5.6,0-9.6-4.8-9.6-12c0-7.5,4.2-12.4,9.9-12.4
				C235.6,9.5,239.4,14.4,239.4,21.4z M222.9,21.8c0,5,2.5,9.6,6.8,9.6c4.4,0,6.8-4.4,6.8-9.8c0-4.7-2.2-9.6-6.8-9.6
				C225.2,12,222.9,16.6,222.9,21.8z"/>
			<path fill="#E6E6E6" d="M260.9,23.1c-0.2-3.3-0.3-7.2-0.3-10.2h-0.1c-0.7,2.8-1.6,5.7-2.7,9L254,33.3h-2.1l-3.4-11.2
				c-1-3.3-1.9-6.4-2.5-9.2l0,0c-0.1,2.9-0.2,6.9-0.4,10.4L245,33.5h-2.6l1.5-23.6h3.5l3.6,11.4c0.9,2.9,1.6,5.5,2.1,7.9h0.1
				c0.5-2.4,1.3-5,2.2-7.9l3.8-11.4h3.5l1.3,23.6h-2.7L260.9,23.1z"/>
			<path fill="#E6E6E6" d="M279.3,22.4H271v8.5h9.2v2.6h-11.9V9.9h11.5v2.6H271V20h8.3V22.4z"/>
			<path fill="#E6E6E6" d="M283.8,10.2c1.4-0.3,3.4-0.5,5.3-0.5c2.9,0,4.8,0.6,6.1,1.9c1.1,1.1,1.7,2.7,1.7,4.5c0,3.1-1.8,5.2-4,6
				v0.1c1.6,0.6,2.6,2.3,3.1,4.8c0.7,3.3,1.2,5.6,1.6,6.5h-2.8c-0.3-0.7-0.8-2.7-1.4-5.6c-0.6-3.3-1.8-4.5-4.3-4.6h-2.6v10.2h-2.7
				L283.8,10.2L283.8,10.2z M286.6,20.9h2.8c2.9,0,4.8-1.8,4.8-4.5c0-3-2-4.4-4.9-4.4c-1.3,0-2.3,0.1-2.7,0.3L286.6,20.9L286.6,20.9
				z"/>
			<path fill="#E6E6E6" d="M315.7,32.7c-1,0.6-3,1.1-5.6,1.1c-6,0-10.5-4.2-10.5-11.9c0-7.4,4.5-12.4,11.1-12.4c2.6,0,4.3,0.6,5,1.1
				l-0.7,2.5c-1-0.6-2.5-1-4.3-1c-5,0-8.3,3.5-8.3,9.7c0,5.8,3,9.5,8.2,9.5c1.7,0,3.4-0.4,4.5-1L315.7,32.7z"/>
			<path fill="#E6E6E6" d="M321.9,9.9v23.6h-2.7V9.9H321.9z"/>
			<path fill="#E6E6E6" d="M330.1,26.1l-2.2,7.4h-2.8l7.2-23.6h3.3l7.3,23.6H340l-2.3-7.4H330.1z M337.1,23.7l-2.1-6.8
				c-0.5-1.5-0.8-2.9-1.1-4.3h-0.1c-0.3,1.4-0.7,2.8-1.1,4.3l-2.1,6.8H337.1z"/>
			<path fill="#E6E6E6" d="M346,9.9h2.7v21h9.1v2.6H346V9.9z"/>
		</g>
	</g>
	<rect x="396.9" y="19.9" width="25.1" height="4.3"/>
	<rect x="0" y="19.4" width="25.1" height="4.3"/>
</g>
</svg>
