<?xml version="1.0" encoding="utf-8"?>
<!-- Generator: Adobe Illustrator 18.0.0, SVG Export Plug-In . SVG Version: 6.00 Build 0)  -->
<!DOCTYPE svg PUBLIC "-//W3C//DTD SVG 1.1//EN" "http://www.w3.org/Graphics/SVG/1.1/DTD/svg11.dtd">
<svg version="1.1" id="Capa_1" xmlns="http://www.w3.org/2000/svg" xmlns:xlink="http://www.w3.org/1999/xlink" x="0px" y="0px"
	 width="422px" height="42.1px" viewBox="0 0 422 42.1" enable-background="new 0 0 422 42.1" xml:space="preserve">
<polyline points="376.5,0 401,21 376.5,42.1 46.1,42.1 21.6,21 46.1,0 "/>
<g>
	<g>
		<g>
			<path fill="#E6E6E6" d="M109.4,33.7c-1,0.6-3,1.1-5.6,1.1c-6,0-10.5-4.2-10.5-11.9c0-7.4,4.5-12.4,11.1-12.4c2.6,0,4.3,0.6,5,1.1
				l-0.7,2.5c-1-0.6-2.5-1-4.3-1c-5,0-8.3,3.5-8.3,9.7c0,5.8,3,9.5,8.2,9.5c1.7,0,3.4-0.4,4.5-1L109.4,33.7z"/>
			<path fill="#E6E6E6" d="M123.8,23.4h-8.3v8.5h9.2v2.6h-11.9V10.9h11.5v2.6h-8.7V21h8.3L123.8,23.4L123.8,23.4z"/>
			<path fill="#E6E6E6" d="M128.4,11.2c1.4-0.3,3.4-0.5,5.3-0.5c2.9,0,4.8,0.6,6.1,1.9c1.1,1.1,1.7,2.7,1.7,4.5c0,3.1-1.8,5.2-4,6
				v0.1c1.6,0.6,2.6,2.3,3.1,4.8c0.7,3.3,1.2,5.6,1.6,6.5h-2.8c-0.3-0.7-0.8-2.7-1.4-5.6c-0.6-3.3-1.8-4.5-4.3-4.6h-2.6v10.2h-2.7
				L128.4,11.2L128.4,11.2z M131.1,21.9h2.8c2.9,0,4.8-1.8,4.8-4.5c0-3-2-4.4-4.9-4.4c-1.3,0-2.3,0.1-2.7,0.3L131.1,21.9L131.1,21.9
				z"/>
			<path fill="#E6E6E6" d="M149.6,13.5h-6.5v-2.6h15.7v2.6h-6.5v21h-2.8v-21H149.6z"/>
			<path fill="#E6E6E6" d="M164,10.9v23.6h-2.7V10.9H164z"/>
			<path fill="#E6E6E6" d="M168.8,10.9h11.4v2.6h-8.7v7.8h8v2.5h-8v10.7h-2.7V10.9z"/>
			<path fill="#E6E6E6" d="M186.9,10.9v23.6h-2.7V10.9H186.9z"/>
			<path fill="#E6E6E6" d="M195.1,27.1l-2.2,7.4h-2.8l7.2-23.6h3.3l7.3,23.6H205l-2.3-7.4H195.1z M202.1,24.7l-2.1-6.8
				c-0.5-1.5-0.8-2.9-1.1-4.3h-0.1c-0.3,1.4-0.7,2.8-1.1,4.3l-2.1,6.8H202.1z"/>
			<path fill="#E6E6E6" d="M225.3,33.7c-1,0.6-3,1.1-5.6,1.1c-6,0-10.5-4.2-10.5-11.9c0-7.4,4.5-12.4,11.1-12.4c2.6,0,4.3,0.6,5,1.1
				l-0.7,2.5c-1-0.6-2.5-1-4.3-1c-5,0-8.3,3.5-8.3,9.7c0,5.8,3,9.5,8.2,9.5c1.7,0,3.4-0.4,4.5-1L225.3,33.7z"/>
			<path fill="#E6E6E6" d="M231.5,10.9v23.6h-2.7V10.9H231.5z"/>
			<path fill="#E6E6E6" d="M254.5,22.4c0,8.1-4.4,12.4-9.9,12.4c-5.6,0-9.6-4.8-9.6-12c0-7.5,4.2-12.4,9.9-12.4
				C250.7,10.5,254.5,15.4,254.5,22.4z M238,22.8c0,5,2.5,9.6,6.8,9.6c4.4,0,6.8-4.4,6.8-9.8c0-4.7-2.2-9.6-6.8-9.6
				C240.2,13,238,17.6,238,22.8z M249.4,5.5l-4,4.1h-2.3l2.9-4.1H249.4z"/>
			<path fill="#E6E6E6" d="M258,34.5V10.9h3l6.8,11.9c1.6,2.8,2.8,5.3,3.8,7.7h0.1c-0.3-3.2-0.3-6-0.3-9.7v-9.9h2.6v23.6h-2.8
				l-6.7-12c-1.5-2.6-2.9-5.3-4-7.9h-0.1c0.2,3,0.2,5.8,0.2,9.7v10.1L258,34.5L258,34.5z"/>
			<path fill="#E6E6E6" d="M288.2,10.9v23.6h-2.7V10.9H288.2z"/>
			<path fill="#E6E6E6" d="M292.6,30.8c1.2,0.8,3,1.5,4.9,1.5c2.8,0,4.4-1.6,4.4-4c0-2.2-1.1-3.5-4-4.7c-3.5-1.4-5.6-3.4-5.6-6.7
				c0-3.7,2.7-6.4,6.9-6.4c2.2,0,3.8,0.6,4.7,1.2l-0.8,2.5c-0.7-0.4-2.1-1.1-4-1.1c-2.9,0-4,1.9-4,3.5c0,2.2,1.3,3.3,4.2,4.6
				c3.6,1.5,5.4,3.5,5.4,6.9c0,3.6-2.4,6.8-7.4,6.8c-2,0-4.3-0.7-5.4-1.5L292.6,30.8z"/>
			<path fill="#E6E6E6" d="M326.7,22.4c0,8.1-4.4,12.4-9.9,12.4c-5.6,0-9.6-4.8-9.6-12c0-7.5,4.2-12.4,9.9-12.4
				C322.9,10.5,326.7,15.4,326.7,22.4z M310.2,22.8c0,5,2.5,9.6,6.8,9.6c4.4,0,6.8-4.4,6.8-9.8c0-4.7-2.2-9.6-6.8-9.6
				C312.5,13,310.2,17.6,310.2,22.8z"/>
		</g>
	</g>
	<rect x="400.9" y="20.9" width="25.1" height="4.3"/>
	<rect x="4" y="20.4" width="25.1" height="4.3"/>
</g>
</svg>
