<?xml version="1.0" encoding="utf-8"?>
<!-- Generator: Adobe Illustrator 18.0.0, SVG Export Plug-In . SVG Version: 6.00 Build 0)  -->
<!DOCTYPE svg PUBLIC "-//W3C//DTD SVG 1.1//EN" "http://www.w3.org/Graphics/SVG/1.1/DTD/svg11.dtd">
<svg version="1.1" id="Capa_1" xmlns="http://www.w3.org/2000/svg" xmlns:xlink="http://www.w3.org/1999/xlink" x="0px" y="0px"
	 width="422px" height="42.1px" viewBox="0 0 422 42.1" enable-background="new 0 0 422 42.1" xml:space="preserve">
<polyline points="376.5,0 401,21 376.5,42.1 46.1,42.1 21.6,21 46.1,0 "/>
<g>
	<g>
		<g>
			<path fill="#E6E6E6" d="M99.6,13.6L99.6,13.6L96,15.7l-0.5-2.3l4.5-2.7h2.4v22.8h-2.7V13.6H99.6z"/>
			<path fill="#E6E6E6" d="M118.3,33.5v-6.2h-9.5v-2l9.2-14.6h3v14.1h2.9v2.4H121v6.2h-2.7V33.5z M118.3,24.9v-7.6
				c0-1.2,0-2.4,0.1-3.6h-0.1c-0.6,1.3-1.1,2.3-1.7,3.4l-5,7.7v0.1H118.3z"/>
			<path fill="#E6E6E6" d="M137.6,12.9c-0.6,0-1.3,0-2.1,0.1c-4.4,0.8-6.7,4.3-7.1,8.1h0.1c1-1.4,2.7-2.6,4.9-2.6
				c3.6,0,6.2,2.9,6.2,7.4c0,4.2-2.6,8-6.8,8c-4.4,0-7.3-3.8-7.3-9.7c0-4.5,1.5-8,3.5-10.3c1.7-1.9,4-3,6.6-3.4
				c0.8-0.1,1.5-0.2,2-0.2L137.6,12.9L137.6,12.9z M136.8,26c0-3.3-1.7-5.2-4.2-5.2c-1.7,0-3.2,1.2-4,2.8c-0.2,0.3-0.3,0.8-0.3,1.4
				c0.1,3.7,1.6,6.5,4.5,6.5C135.2,31.5,136.8,29.3,136.8,26z"/>
			<path fill="#E6E6E6" d="M167.9,21.4c0,8.1-4.4,12.4-9.9,12.4c-5.6,0-9.6-4.8-9.6-12c0-7.5,4.2-12.4,9.9-12.4
				C164.2,9.5,167.9,14.4,167.9,21.4z M151.4,21.8c0,5,2.5,9.6,6.8,9.6c4.4,0,6.8-4.4,6.8-9.8c0-4.7-2.2-9.6-6.8-9.6
				C153.7,12,151.4,16.6,151.4,21.8z"/>
			<path fill="#E6E6E6" d="M171.5,10.2c1.3-0.2,3.1-0.5,5.3-0.5c2.7,0,4.7,0.7,6,2c1.2,1.1,1.9,2.8,1.9,4.9s-0.6,3.8-1.6,5
				c-1.4,1.7-3.8,2.6-6.5,2.6c-0.8,0-1.6,0-2.2-0.2v9.5h-2.7V10.2H171.5z M174.2,21.5c0.6,0.2,1.4,0.2,2.3,0.2c3.3,0,5.3-1.8,5.3-5
				c0-3.1-2-4.6-5-4.6c-1.2,0-2.1,0.1-2.6,0.2V21.5z"/>
			<path fill="#E6E6E6" d="M199.2,22.4H191v8.5h9.2v2.6h-11.9V9.9h11.5v2.6H191V20h8.3v2.4H199.2z"/>
			<path fill="#E6E6E6" d="M203.7,10.2c1.4-0.3,3.4-0.5,5.3-0.5c2.9,0,4.8,0.6,6.1,1.9c1.1,1.1,1.7,2.7,1.7,4.5c0,3.1-1.8,5.2-4,6
				v0.1c1.6,0.6,2.6,2.3,3.1,4.8c0.7,3.3,1.2,5.6,1.6,6.5h-2.8c-0.3-0.7-0.8-2.7-1.4-5.6c-0.6-3.3-1.8-4.5-4.3-4.6h-2.6v10.2h-2.7
				L203.7,10.2L203.7,10.2z M206.5,20.9h2.8c2.9,0,4.8-1.8,4.8-4.5c0-3-2-4.4-4.9-4.4c-1.3,0-2.3,0.1-2.7,0.3L206.5,20.9L206.5,20.9
				z"/>
			<path fill="#E6E6E6" d="M224.3,26.1l-2.2,7.4h-2.8l7.2-23.6h3.3l7.3,23.6h-2.9l-2.3-7.4H224.3z M231.3,23.7l-2.1-6.8
				c-0.5-1.5-0.8-2.9-1.1-4.3H228c-0.3,1.4-0.7,2.8-1.1,4.3l-2.1,6.8H231.3z"/>
			<path fill="#E6E6E6" d="M254.5,32.7c-1,0.6-3,1.1-5.6,1.1c-6,0-10.5-4.2-10.5-11.9c0-7.4,4.5-12.4,11.1-12.4c2.6,0,4.3,0.6,5,1.1
				l-0.7,2.5c-1-0.6-2.5-1-4.3-1c-5,0-8.3,3.5-8.3,9.7c0,5.8,3,9.5,8.2,9.5c1.7,0,3.4-0.4,4.5-1L254.5,32.7z"/>
			<path fill="#E6E6E6" d="M260.7,9.9v23.6H258V9.9H260.7z"/>
			<path fill="#E6E6E6" d="M283.7,21.4c0,8.1-4.4,12.4-9.9,12.4c-5.6,0-9.6-4.8-9.6-12c0-7.5,4.2-12.4,9.9-12.4
				C279.9,9.5,283.7,14.4,283.7,21.4z M267.2,21.8c0,5,2.5,9.6,6.8,9.6c4.4,0,6.8-4.4,6.8-9.8c0-4.7-2.2-9.6-6.8-9.6
				C269.4,12,267.2,16.6,267.2,21.8z"/>
			<path fill="#E6E6E6" d="M287.2,33.5V9.9h3l6.8,11.9c1.6,2.8,2.8,5.3,3.8,7.7h0.1c-0.3-3.2-0.3-6-0.3-9.7V9.9h2.6v23.6h-2.8
				l-6.7-12c-1.5-2.6-2.9-5.3-4-7.9h-0.1c0.2,3,0.2,5.8,0.2,9.7v10.1L287.2,33.5L287.2,33.5z"/>
			<path fill="#E6E6E6" d="M319,22.4h-8.3v8.5h9.2v2.6H308V9.9h11.5v2.6h-8.7V20h8.3L319,22.4L319,22.4z"/>
			<path fill="#E6E6E6" d="M323.1,29.8c1.2,0.8,3,1.5,4.9,1.5c2.8,0,4.4-1.6,4.4-4c0-2.2-1.1-3.5-4-4.7c-3.5-1.4-5.6-3.4-5.6-6.7
				c0-3.7,2.7-6.4,6.9-6.4c2.2,0,3.8,0.6,4.7,1.2l-0.8,2.5c-0.7-0.4-2.1-1.1-4-1.1c-2.9,0-4,1.9-4,3.5c0,2.2,1.3,3.3,4.2,4.6
				c3.6,1.5,5.4,3.5,5.4,6.9c0,3.6-2.4,6.8-7.4,6.8c-2,0-4.3-0.7-5.4-1.5L323.1,29.8z"/>
		</g>
	</g>
	<rect x="400.9" y="19.9" width="25.1" height="4.3"/>
	<rect x="4" y="19.4" width="25.1" height="4.3"/>
</g>
</svg>
